<svg width="12" height="12" viewBox="0 0 12 12" fill="none" xmlns="http://www.w3.org/2000/svg">
<path fill-rule="evenodd" clip-rule="evenodd" d="M5.875 10.6112C5.875 10.6112 9.875 7.98989 9.875 4.61968C9.875 3.62653 9.45357 2.67406 8.70343 1.97179C7.95328 1.26953 6.93587 0.875 5.875 0.875C4.81413 0.875 3.79672 1.26953 3.04657 1.97179C2.29643 2.67406 1.875 3.62653 1.875 4.61968C1.875 7.98989 5.875 10.6112 5.875 10.6112ZM7.375 4.75143C7.375 5.57986 6.70343 6.25143 5.875 6.25143C5.04657 6.25143 4.375 5.57986 4.375 4.75143C4.375 3.92301 5.04657 3.25143 5.875 3.25143C6.70343 3.25143 7.375 3.92301 7.375 4.75143Z" fill="#6738DD"/>
</svg>
