<svg width="20" height="20" viewBox="0 0 20 20" fill="none" xmlns="http://www.w3.org/2000/svg">
<path d="M7.67334 16.0104C7.51832 16.1654 7.32103 16.25 7.0885 16.25C6.62345 16.25 6.25 15.8836 6.25 15.4185C6.25 15.186 6.34865 14.9746 6.51071 14.8126L11.4431 9.99295L6.51071 5.18743C6.34865 5.02537 6.25 4.80693 6.25 4.58145C6.25 4.1164 6.62345 3.75 7.0885 3.75C7.32103 3.75 7.51832 3.83455 7.67334 3.98957L13.1553 9.3447C13.3526 9.5279 13.4442 9.75338 13.4512 10C13.4512 10.2466 13.3526 10.458 13.1553 10.6483L7.67334 16.0104Z" fill="#373742"/>
</svg>
