<svg width="16" height="16" viewBox="0 0 16 16" fill="none" xmlns="http://www.w3.org/2000/svg">
<path d="M5.87703 8.32276C6.3845 9.36024 7.22547 10.1974 8.26525 10.7001C8.34132 10.7362 8.42548 10.7518 8.50942 10.7454C8.59337 10.7391 8.67421 10.711 8.744 10.6639L10.275 9.643C10.3427 9.59785 10.4206 9.5703 10.5017 9.56286C10.5827 9.55541 10.6643 9.5683 10.7391 9.60036L13.6033 10.8279C13.7006 10.8692 13.7819 10.941 13.8348 11.0326C13.8877 11.1241 13.9095 11.2303 13.8968 11.3352C13.8062 12.0436 13.4606 12.6947 12.9246 13.1667C12.3885 13.6386 11.6989 13.8989 10.9847 13.8989C8.77899 13.8989 6.66359 13.0227 5.10389 11.463C3.5442 9.90333 2.66797 7.78793 2.66797 5.58219C2.66801 4.86803 2.92835 4.17837 3.40026 3.64235C3.87217 3.10632 4.52328 2.76069 5.23167 2.67016C5.33662 2.65746 5.44285 2.67921 5.53436 2.73213C5.62587 2.78506 5.6977 2.86629 5.73904 2.96358L6.96762 5.83029C6.9994 5.90444 7.01235 5.9853 7.00532 6.06566C6.99828 6.14603 6.97148 6.22341 6.92731 6.29091L5.90995 7.84539C5.86364 7.91532 5.83627 7.99606 5.8305 8.07973C5.82473 8.1634 5.84076 8.24714 5.87703 8.32276V8.32276Z" fill="#6738DD" stroke="#6738DD" stroke-linecap="round" stroke-linejoin="round"/>
</svg>
