<svg width="150" height="150" viewBox="0 0 150 150" fill="none" xmlns="http://www.w3.org/2000/svg">
<rect x="101.4" y="1.00781" width="36.6435" height="152.683" rx="17.5538" transform="rotate(32 101.4 1.00781)" fill="url(#paint0_linear_2868_8660)"/>
<path fill-rule="evenodd" clip-rule="evenodd" d="M27.5194 10.3006C35.7409 5.16321 46.5704 7.66311 51.7078 15.8846L78.3641 56.7312L78.3992 56.7244C79.7399 58.7933 81.5184 60.6735 83.6912 62.2439L84.994 63.0584C92.9497 68.0295 103.347 65.8484 108.666 58.2527C108.59 58.4126 108.506 58.5717 108.409 58.7273L87.9891 91.407C87.761 91.8063 87.5161 92.1977 87.2557 92.5799L87.2 92.6687C84.3155 97.2848 79.6368 100.098 74.6326 100.767C67.7553 102.034 60.492 99.0919 56.5613 92.8016L20.6326 35.3025C15.4953 27.081 17.9951 16.2514 26.2166 11.1141L27.5194 10.3006Z" fill="url(#paint1_linear_2868_8660)"/>
<defs>
<linearGradient id="paint0_linear_2868_8660" x1="119.722" y1="1.00781" x2="119.429" y2="151.195" gradientUnits="userSpaceOnUse">
<stop stop-color="white"/>
<stop offset="0.402434" stop-color="#D7D0E6"/>
<stop offset="0.492325" stop-color="#D7D0E6"/>
<stop offset="0.615606" stop-color="white"/>
<stop offset="0.872612" stop-color="white"/>
</linearGradient>
<linearGradient id="paint1_linear_2868_8660" x1="63.9756" y1="56.0059" x2="26.3766" y2="7.57082" gradientUnits="userSpaceOnUse">
<stop stop-color="white"/>
<stop offset="1" stop-color="#D7D0E6"/>
</linearGradient>
</defs>
</svg>
