<svg width="16" height="16" viewBox="0 0 16 16" fill="none" xmlns="http://www.w3.org/2000/svg">
<path d="M14.2188 5.4541V10.5449C14.2179 11.1073 13.9489 11.6473 13.4717 12.0449C12.9945 12.4424 12.3475 12.6663 11.6729 12.667H4.5459C3.87125 12.6663 3.22422 12.4424 2.74707 12.0449C2.26988 11.6473 2.00081 11.1073 2 10.5449V5.4541C2.00004 5.38759 2.01632 5.32672 2.02344 5.25977L6.30957 8.83105C6.78741 9.22822 7.43448 9.45117 8.10938 9.45117C8.78427 9.45117 9.43134 9.22822 9.90918 8.83105L14.1953 5.25977C14.2024 5.32672 14.2187 5.38759 14.2188 5.4541ZM11.6738 3.33301C12.1099 3.33404 12.5385 3.42927 12.918 3.6084C13.2974 3.78755 13.6146 4.04527 13.8398 4.35645L9.19043 8.23145C8.90362 8.46949 8.51513 8.60342 8.11035 8.60352C7.70541 8.60352 7.31621 8.46958 7.0293 8.23145L2.37988 4.35645C2.60508 4.04527 2.92238 3.78755 3.30176 3.6084C3.68118 3.42928 4.10983 3.33405 4.5459 3.33301H11.6738Z" fill="#6738DD"/>
</svg>
