<svg width="20" height="20" viewBox="0 0 20 20" fill="none" xmlns="http://www.w3.org/2000/svg">
<g clip-path="url(#clip0_3630_4692)">
<path d="M7.08959 10.4686C4.78547 8.7459 3.14346 6.85103 2.24689 5.78577C1.96935 5.45601 1.87841 5.21469 1.82373 4.78959C1.63649 3.33404 1.54288 2.60626 1.96967 2.13644C2.39648 1.66663 3.15124 1.66663 4.66077 1.66663H15.338C16.8475 1.66663 17.6022 1.66663 18.029 2.13644C18.4558 2.60626 18.3622 3.33404 18.175 4.7896C18.1203 5.2147 18.0293 5.45602 17.7517 5.78577C16.854 6.85239 15.2087 8.75062 12.8999 10.4754C12.691 10.6315 12.5533 10.8858 12.5278 11.1679C12.2991 13.6963 12.0881 15.0811 11.9568 15.7816C11.745 16.9127 10.1412 17.5931 9.28268 18.2003C8.77166 18.5617 8.15148 18.1315 8.08525 17.572C7.959 16.5056 7.72121 14.3392 7.46163 11.1679C7.43832 10.8832 7.30014 10.626 7.08959 10.4686Z" stroke="#373742" stroke-width="1.5" stroke-linecap="round" stroke-linejoin="round"/>
</g>
<defs>
<clipPath id="clip0_3630_4692">
<rect width="20" height="20" fill="white"/>
</clipPath>
</defs>
</svg>
