<svg width="12" height="12" viewBox="0 0 12 12" fill="none" xmlns="http://www.w3.org/2000/svg">
<path fill-rule="evenodd" clip-rule="evenodd" d="M8.25 0.4375C8.52614 0.4375 8.75 0.661358 8.75 0.9375V1.5625H9.375C10.2725 1.5625 11 2.29004 11 3.1875V9.9375C11 10.835 10.2725 11.5625 9.375 11.5625H2.625C1.72754 11.5625 1 10.835 1 9.9375V3.1875C1 2.29004 1.72754 1.5625 2.625 1.5625H3.25V0.9375C3.25 0.661358 3.47386 0.4375 3.75 0.4375C4.02614 0.4375 4.25 0.661358 4.25 0.9375V1.5625H7.75V0.9375C7.75 0.661358 7.97386 0.4375 8.25 0.4375ZM2 9.9375C2 10.2827 2.27982 10.5625 2.625 10.5625H9.375C9.72018 10.5625 10 10.2827 10 9.9375V5.9375H2V9.9375ZM7.125 7.75C7.40114 7.75 7.625 7.97386 7.625 8.25C7.625 8.52614 7.40114 8.75 7.125 8.75H4.875C4.59886 8.75 4.375 8.52614 4.375 8.25C4.375 7.97386 4.59886 7.75 4.875 7.75H7.125ZM2.625 2.5625C2.27982 2.5625 2 2.84232 2 3.1875V4.9375H10V3.1875C10 2.84232 9.72018 2.5625 9.375 2.5625H8.75V3.1875C8.75 3.46364 8.52614 3.6875 8.25 3.6875C7.97386 3.6875 7.75 3.46364 7.75 3.1875V2.5625H4.25V3.1875C4.25 3.46364 4.02614 3.6875 3.75 3.6875C3.47386 3.6875 3.25 3.46364 3.25 3.1875V2.5625H2.625Z" fill="#373742"/>
</svg>
