<svg width="24" height="24" viewBox="0 0 24 24" fill="none" xmlns="http://www.w3.org/2000/svg">
<path d="M12 22C13.9778 22 15.9112 21.4135 17.5557 20.3147C19.2002 19.2159 20.4819 17.6541 21.2388 15.8268C21.9957 13.9996 22.1937 11.9889 21.8078 10.0491C21.422 8.10929 20.4696 6.32746 19.0711 4.92894C17.6725 3.53041 15.8907 2.578 13.9509 2.19215C12.0111 1.8063 10.0004 2.00433 8.17316 2.76121C6.3459 3.51809 4.78412 4.79981 3.6853 6.4443C2.58649 8.08879 2 10.0222 2 12C2.00287 14.6513 3.05736 17.1932 4.9321 19.0679C6.80684 20.9426 9.34871 21.9971 12 22ZM12 6.16667C12.2472 6.16667 12.4889 6.23998 12.6945 6.37733C12.9 6.51468 13.0602 6.70991 13.1548 6.93832C13.2495 7.16672 13.2742 7.41806 13.226 7.66053C13.1777 7.90301 13.0587 8.12574 12.8839 8.30055C12.7091 8.47537 12.4863 8.59442 12.2439 8.64265C12.0014 8.69088 11.7501 8.66613 11.5216 8.57152C11.2932 8.47691 11.098 8.31669 10.9607 8.11113C10.8233 7.90557 10.75 7.6639 10.75 7.41667C10.75 7.08515 10.8817 6.76721 11.1161 6.53279C11.3505 6.29837 11.6685 6.16667 12 6.16667ZM11.1667 10.3333H12C12.442 10.3333 12.8659 10.5089 13.1785 10.8215C13.4911 11.1341 13.6667 11.558 13.6667 12V17C13.6667 17.221 13.5789 17.433 13.4226 17.5893C13.2663 17.7455 13.0543 17.8333 12.8333 17.8333C12.6123 17.8333 12.4004 17.7455 12.2441 17.5893C12.0878 17.433 12 17.221 12 17V12H11.1667C10.9457 12 10.7337 11.9122 10.5774 11.7559C10.4211 11.5996 10.3333 11.3877 10.3333 11.1667C10.3333 10.9457 10.4211 10.7337 10.5774 10.5774C10.7337 10.4211 10.9457 10.3333 11.1667 10.3333Z" fill="#E4303D"/>
</svg>
