<svg width="16" height="16" viewBox="0 0 16 16" fill="none" xmlns="http://www.w3.org/2000/svg">
<path d="M6.5 1.75C6.91421 1.75 7.25 2.08579 7.25 2.5C7.25 2.91421 6.91421 3.25 6.5 3.25H3.25V12.75H6.5C6.91421 12.75 7.25 13.0858 7.25 13.5C7.25 13.9142 6.91421 14.25 6.5 14.25H3C2.66848 14.25 2.35063 14.1182 2.11621 13.8838C1.88179 13.6494 1.75 13.3315 1.75 13V3C1.75 2.66848 1.88179 2.35063 2.11621 2.11621C2.35063 1.88179 2.66848 1.75 3 1.75H6.5ZM10.3457 4.84473C10.6386 4.55206 11.1134 4.55192 11.4062 4.84473L14.0303 7.46973C14.1476 7.58713 14.215 7.73432 14.2383 7.88672C14.242 7.91145 14.2448 7.93645 14.2461 7.96191C14.2474 7.98705 14.2473 8.01198 14.2461 8.03711C14.2449 8.06258 14.242 8.08756 14.2383 8.1123C14.2152 8.26505 14.1478 8.41262 14.0303 8.53027L11.4062 11.1553C11.1134 11.4481 10.6386 11.4479 10.3457 11.1553C10.0528 10.8624 10.0529 10.3876 10.3457 10.0947L11.6895 8.75H6.5C6.08579 8.75 5.75 8.41421 5.75 8C5.75 7.58579 6.08579 7.25 6.5 7.25H11.6895L10.3457 5.90527C10.0529 5.61237 10.0528 5.13759 10.3457 4.84473Z" fill="#373742"/>
</svg>
