<svg width="12" height="12" viewBox="0 0 12 12" fill="none" xmlns="http://www.w3.org/2000/svg">
<path fill-rule="evenodd" clip-rule="evenodd" d="M10.1239 5.9597C10.1239 8.25956 8.25952 10.124 5.95967 10.124C3.65981 10.124 1.79541 8.25956 1.79541 5.9597C1.79541 3.65985 3.65981 1.79545 5.95967 1.79545C8.25952 1.79545 10.1239 3.65985 10.1239 5.9597ZM5.96005 3.03056C5.68391 3.03056 5.46005 3.25442 5.46005 3.53056V5.95927C5.46005 6.23541 5.68391 6.45927 5.96005 6.45927H8.38876C8.6649 6.45927 8.88876 6.23541 8.88876 5.95927C8.88852 5.68333 8.66476 5.45927 8.38876 5.45927H6.46005V3.53056C6.46005 3.25442 6.23619 3.03056 5.96005 3.03056Z" fill="#6738DD"/>
</svg>
