<svg width="20" height="20" viewBox="0 0 20 20" fill="none" xmlns="http://www.w3.org/2000/svg">
<path d="M9.99902 3.20801C10.4131 3.20801 10.7488 3.54394 10.749 3.95801V9.25H16.04C16.4541 9.25022 16.79 9.58593 16.79 10C16.79 10.4141 16.4541 10.7498 16.04 10.75H10.749V16.041C10.7488 16.455 10.4131 16.791 9.99902 16.791C9.58507 16.7909 9.24925 16.4549 9.24902 16.041V10.75H3.95703C3.54297 10.7498 3.20703 10.4141 3.20703 10C3.20703 9.5859 3.54297 9.25018 3.95703 9.25H9.24902V3.95801C9.2492 3.54403 9.58504 3.20815 9.99902 3.20801Z" fill="#6738DD"/>
</svg>
