<svg width="24" height="24" viewBox="0 0 24 24" fill="none" xmlns="http://www.w3.org/2000/svg">
<path d="M2 17.5C2.41421 17.5 2.75 17.8358 2.75 18.25V19.5C2.75 19.9641 2.93451 20.4091 3.2627 20.7373C3.59088 21.0655 4.03587 21.25 4.5 21.25H7C7.41421 21.25 7.75 21.5858 7.75 22C7.75 22.4142 7.41421 22.75 7 22.75H4.5C3.63805 22.75 2.81164 22.4073 2.20215 21.7979C1.59266 21.1884 1.25 20.362 1.25 19.5V18.25C1.25 17.8358 1.58579 17.5 2 17.5ZM22 17.5C22.4142 17.5 22.75 17.8358 22.75 18.25V19.5C22.75 20.362 22.4073 21.1884 21.7979 21.7979C21.1884 22.4073 20.362 22.75 19.5 22.75H17C16.5858 22.75 16.25 22.4142 16.25 22C16.25 21.5858 16.5858 21.25 17 21.25H19.5C19.9641 21.25 20.4091 21.0655 20.7373 20.7373C21.0655 20.4091 21.25 19.9641 21.25 19.5V18.25C21.25 17.8358 21.5858 17.5 22 17.5ZM11 17H7V13H11V17ZM17 17H13V13H17V17ZM11 11H7V7H11V11ZM17 11H13V7H17V11ZM7 1.25C7.41421 1.25 7.75 1.58579 7.75 2C7.75 2.41421 7.41421 2.75 7 2.75H4.5C4.03587 2.75 3.59088 2.93451 3.2627 3.2627C2.93451 3.59088 2.75 4.03587 2.75 4.5V5.75C2.75 6.16421 2.41421 6.5 2 6.5C1.58579 6.5 1.25 6.16421 1.25 5.75V4.5C1.25 3.63805 1.59266 2.81164 2.20215 2.20215C2.81164 1.59266 3.63805 1.25 4.5 1.25H7ZM19.5 1.25C20.362 1.25 21.1884 1.59266 21.7979 2.20215C22.4073 2.81164 22.75 3.63805 22.75 4.5V5.75C22.75 6.16421 22.4142 6.5 22 6.5C21.5858 6.5 21.25 6.16421 21.25 5.75V4.5C21.25 4.03587 21.0655 3.59088 20.7373 3.2627C20.4091 2.93451 19.9641 2.75 19.5 2.75H17C16.5858 2.75 16.25 2.41421 16.25 2C16.25 1.58579 16.5858 1.25 17 1.25H19.5Z" fill="#373742"/>
</svg>
