<svg width="12" height="12" viewBox="0 0 12 12" fill="none" xmlns="http://www.w3.org/2000/svg">
<path d="M5.95605 0.875C8.76187 0.875201 11.0361 3.1502 11.0361 5.95605C11.0359 8.76174 8.76174 11.0359 5.95605 11.0361C3.1502 11.0361 0.875201 8.76187 0.875 5.95605C0.875 3.15007 3.15007 0.875 5.95605 0.875ZM5.95605 1.875C3.70236 1.875 1.875 3.70236 1.875 5.95605C1.8752 8.20958 3.70248 10.0361 5.95605 10.0361C8.20946 10.0359 10.0359 8.20946 10.0361 5.95605C10.0361 3.70248 8.20958 1.8752 5.95605 1.875ZM5.95605 2.7832C6.23195 2.78333 6.45583 3.00733 6.45605 3.2832V5.45508H8.62793C8.90376 5.4552 9.1276 5.67929 9.12793 5.95508C9.12793 6.23114 8.90397 6.45495 8.62793 6.45508H5.95605C5.67991 6.45508 5.45605 6.23122 5.45605 5.95508V3.2832C5.45628 3.00725 5.68005 2.7832 5.95605 2.7832Z" fill="#808095"/>
</svg>
