<svg width="16" height="16" viewBox="0 0 16 16" fill="none" xmlns="http://www.w3.org/2000/svg">
<path fill-rule="evenodd" clip-rule="evenodd" d="M8.0127 13.2493C6.93319 13.2493 6.43153 13.0917 5.55952 12.4613C5.00794 13.1705 3.2613 13.7247 3.18512 12.7765C3.18512 12.0647 3.02753 11.4632 2.84892 10.8066C2.63618 9.99762 2.39453 9.09672 2.39453 7.79134C2.39453 4.67363 4.95279 2.32812 7.98382 2.32812C11.0175 2.32812 13.3945 4.78919 13.3945 7.82022C13.4047 10.8044 10.9968 13.2334 8.0127 13.2493ZM8.05736 5.02295C6.58125 4.94679 5.43081 5.96852 5.17604 7.57071C4.96592 8.89711 5.33889 10.5124 5.6567 10.5965C5.80904 10.6333 6.19252 10.3233 6.43153 10.0843C6.82675 10.3573 7.28699 10.5213 7.76582 10.5597C9.29532 10.6333 10.6022 9.46887 10.7049 7.94106C10.7647 6.40999 9.58707 5.1132 8.05736 5.02559V5.02295Z" fill="#6738DD"/>
</svg>
