<svg width="24" height="24" viewBox="0 0 24 24" fill="none" xmlns="http://www.w3.org/2000/svg">
<path fill-rule="evenodd" clip-rule="evenodd" d="M11.9997 1.24988C12.2 1.24988 12.392 1.33009 12.5329 1.47254L22.5329 11.5887C22.7455 11.8039 22.8086 12.126 22.692 12.4052C22.5754 12.6843 22.3022 12.8661 21.9997 12.8661H20.528V19.9843C20.528 20.7765 20.217 21.5386 19.6608 22.1014C19.1042 22.6645 18.3463 22.9822 17.5553 22.9823H6.44498C5.65399 22.9823 4.8962 22.6645 4.33951 22.1014C3.78309 21.5386 3.47232 20.7766 3.47232 19.9843V12.8661H1.99966C1.69713 12.8661 1.42389 12.6843 1.30728 12.4052C1.19077 12.126 1.25382 11.8039 1.46646 11.5887L11.4665 1.47254L11.5807 1.37781C11.7036 1.29505 11.8493 1.24988 11.9997 1.24988ZM3.79556 11.3661H4.22232C4.58447 11.3663 4.8866 11.6232 4.95669 11.9647C4.96671 12.0136 4.97232 12.0642 4.97232 12.1161V19.9843C4.97232 20.3843 5.12982 20.7665 5.40689 21.0468C5.68363 21.3265 6.05754 21.4823 6.44498 21.4823H17.5553C17.9427 21.4822 18.3168 21.3265 18.5934 21.0468C18.8703 20.7665 19.028 20.3842 19.028 19.9843V12.1346C19.0278 12.1285 19.027 12.1223 19.027 12.1161C19.027 11.7021 19.363 11.3663 19.777 11.3661H20.2038L11.9997 3.06629L3.79556 11.3661ZM14.2223 11.3661C14.6363 11.3664 14.9723 11.702 14.9723 12.1161V16.6122C14.9723 17.0262 14.6363 17.3619 14.2223 17.3622H9.77798C9.36377 17.3622 9.02798 17.0264 9.02798 16.6122V12.1161C9.02798 11.7019 9.36377 11.3661 9.77798 11.3661H14.2223ZM10.528 15.8622H13.4723V12.8661H10.528V15.8622Z" fill="#373742"/>
</svg>
