<svg width="56" height="56" viewBox="0 0 56 56" fill="none" xmlns="http://www.w3.org/2000/svg">
<circle cx="28" cy="28" r="28" fill="#EFE8FF"/>
<path d="M38.1366 15.4697C38.4295 15.177 38.9043 15.1769 39.1971 15.4697C39.4898 15.7626 39.4898 16.2374 39.1971 16.5303L25.7733 29.9531C26.0278 29.8745 26.3157 29.9316 26.5194 30.1309C27.7382 31.3237 29.1503 32.3133 30.6981 33.0586C30.7873 33.0977 30.8891 33.1074 30.9852 33.084C31.0825 33.0601 31.1657 33.0046 31.2225 32.9316L31.2235 32.9307L31.6415 32.3955C31.9314 32.0186 32.3051 31.7135 32.7333 31.5039C33.1631 31.2935 33.6369 31.1846 34.1161 31.1846H37.6463C38.4643 31.1847 39.2527 31.5023 39.8358 32.0732C40.4193 32.6448 40.7499 33.4241 40.7499 34.2393V37.6953C40.7498 38.5104 40.4194 39.2899 39.8358 39.8613C39.2527 40.4323 38.4643 40.7499 37.6463 40.75C34.7683 40.75 31.9175 40.1948 29.2577 39.1162C26.598 38.0376 24.1797 36.4564 22.1424 34.4619C21.9597 34.283 21.8877 34.0332 21.9276 33.7988L16.5301 39.1973C16.2373 39.4899 15.7624 39.4899 15.4696 39.1973C15.1767 38.9044 15.1769 38.4296 15.4696 38.1367L38.1366 15.4697ZM22.5379 33.1885C22.7674 33.1486 23.0121 33.2144 23.1913 33.3896C25.0879 35.2465 27.341 36.7208 29.8212 37.7266C32.3014 38.7323 34.9609 39.25 37.6463 39.25C38.0766 39.2499 38.4865 39.0823 38.786 38.7891C39.0849 38.4963 39.2498 38.1022 39.2499 37.6953V34.2393C39.2499 33.8323 39.0848 33.4383 38.786 33.1455C38.4865 32.8523 38.0766 32.6847 37.6463 32.6846H34.1161C33.8645 32.6846 33.6161 32.7421 33.3924 32.8516C33.1689 32.9611 32.9759 33.1194 32.828 33.3125L32.8241 33.3174L32.4061 33.8516C32.139 34.1951 31.7631 34.4379 31.3417 34.541C30.9205 34.6439 30.4756 34.6026 30.0799 34.4248C30.0743 34.4223 30.0679 34.4196 30.0624 34.417C28.3626 33.6005 26.8107 32.5147 25.4706 31.2031C25.2627 30.9997 25.2007 30.7054 25.2811 30.4453L22.5379 33.1885ZM23.0467 15.25C23.8533 15.25 24.6264 15.5728 25.1952 16.1455C25.7639 16.7184 26.0829 17.4949 26.0829 18.3027V21.7559C26.0829 22.2288 25.9737 22.6957 25.7635 23.1191C25.5534 23.5425 25.2478 23.9115 24.871 24.1963L24.3407 24.5967L24.2909 24.6426C24.2448 24.6927 24.2113 24.7548 24.1952 24.8232C24.1737 24.9146 24.1849 25.0108 24.2254 25.0947H24.2245C24.3095 25.2687 24.3986 25.4407 24.4901 25.6113C24.6858 25.9763 24.5484 26.4312 24.1835 26.627C23.8185 26.8225 23.3635 26.6853 23.1678 26.3203C23.0671 26.1324 22.9694 25.9426 22.8758 25.751L22.8749 25.748C22.6843 25.3541 22.6352 24.9063 22.7352 24.4805C22.8354 24.0544 23.0793 23.6744 23.4266 23.4072L23.4315 23.4033L23.9667 23C24.1574 22.8559 24.3126 22.668 24.4198 22.4521C24.5269 22.2363 24.5829 21.9977 24.5829 21.7559V18.3027C24.5829 17.8893 24.4193 17.4938 24.1307 17.2031C23.8423 16.9127 23.4522 16.75 23.0467 16.75H19.619C19.2136 16.7501 18.8234 16.9127 18.535 17.2031C18.2465 17.4938 18.0829 17.8893 18.0829 18.3027C18.0821 22.0653 19.1367 25.7516 21.1239 28.9365C21.3428 29.2878 21.2357 29.7505 20.8846 29.9697C20.5332 30.1888 20.0697 30.0818 19.8504 29.7305C17.7144 26.3069 16.5821 22.3454 16.5829 18.3027C16.5829 17.495 16.902 16.7183 17.4706 16.1455C18.0393 15.5728 18.8124 15.2501 19.619 15.25H23.0467Z" fill="#373742"/>
</svg>
