<svg width="40" height="40" viewBox="0 0 40 40" fill="none" xmlns="http://www.w3.org/2000/svg">
<circle cx="20" cy="20" r="20" fill="#DADAE7"/>
<path fill-rule="evenodd" clip-rule="evenodd" d="M14 14C14 12.4087 14.6322 10.8826 15.7574 9.75736C16.8826 8.63214 18.4087 8 20 8C21.5913 8 23.1175 8.63214 24.2427 9.75736C25.3679 10.8826 26 12.4087 26 14C26 15.5913 25.3679 17.1174 24.2427 18.2426C23.1175 19.3679 21.5913 20 20 20C18.4087 20 16.8826 19.3679 15.7574 18.2426C14.6322 17.1174 14 15.5913 14 14ZM9.00138 32.8067C9.04634 29.9193 10.2249 27.1654 12.2827 25.1394C14.3404 23.1135 17.1123 21.9779 20 21.9779C22.8878 21.9779 25.6597 23.1135 27.7174 25.1394C29.7752 27.1654 30.9538 29.9193 30.9987 32.8067C31.0022 33.001 30.9489 33.1922 30.8454 33.3568C30.7419 33.5214 30.5927 33.6522 30.416 33.7333C27.1483 35.2316 23.5949 36.0049 20 36C16.2854 36 12.756 35.1893 9.58405 33.7333C9.40736 33.6522 9.25815 33.5214 9.15466 33.3568C9.05118 33.1922 8.99791 33.001 9.00138 32.8067Z" fill="#9898AE"/>
</svg>
