<svg width="24" height="24" viewBox="0 0 24 24" fill="none" xmlns="http://www.w3.org/2000/svg">
<path d="M17.2197 6.21967C17.5126 5.92678 17.9873 5.92677 18.2802 6.21967C18.573 6.51257 18.5731 6.98736 18.2802 7.28022L13.8105 11.7499L18.2802 16.2197C18.573 16.5126 18.5731 16.9874 18.2802 17.2802C17.9874 17.5731 17.5126 17.573 17.2197 17.2802L12.7499 12.8105L8.28022 17.2802C7.98736 17.5731 7.51257 17.573 7.21967 17.2802C6.92677 16.9873 6.92678 16.5126 7.21967 16.2197L11.6894 11.7499L7.21967 7.28022C6.92677 6.98732 6.92677 6.51256 7.21967 6.21967C7.51256 5.92677 7.98732 5.92677 8.28022 6.21967L12.7499 10.6894L17.2197 6.21967Z" fill="currentColor"/>
</svg>
