<svg width="648" height="648" viewBox="0 0 648 648" fill="none" xmlns="http://www.w3.org/2000/svg">
<path d="M359.648 1.96701C294.469 -5.24795 228.636 7.48474 170.848 38.4823C113.06 69.4798 66.0381 117.283 35.9971 175.574C5.95613 233.865 -5.6899 299.899 2.59821 364.95C10.8863 430.001 38.7184 491.005 82.4161 539.901C126.114 588.797 183.62 623.282 247.334 638.799C311.048 654.316 377.971 650.134 439.258 626.806C500.545 603.478 553.311 562.102 590.582 508.147C627.853 454.192 647.874 390.197 647.999 324.62L324 324L359.648 1.96701Z" fill="white"/>
<path d="M446 138C446 93.8172 481.817 58 526 58C570.183 58 606 93.8172 606 138C606 182.183 570.183 218 526 218C481.817 218 446 182.183 446 138Z" fill="url(#paint0_linear_4618_7646)"/>
<path d="M563.342 114.664L513.564 162.179L488.676 138.422" stroke="white" stroke-width="12.032" stroke-linecap="square"/>
<path d="M359.648 1.96701C292.249 -5.49369 224.209 8.38015 165.112 41.6339C106.016 74.8876 58.842 125.845 30.2376 187.327C1.63313 248.808 -6.96028 317.715 5.66807 384.339C18.2964 450.963 51.51 511.945 100.629 558.695L324 324L359.648 1.96701Z" fill="url(#paint1_linear_4618_7646)"/>
<defs>
<linearGradient id="paint0_linear_4618_7646" x1="568" y1="218" x2="519.655" y2="58" gradientUnits="userSpaceOnUse">
<stop stop-color="#EA5607"/>
<stop offset="1" stop-color="#FFAE00"/>
</linearGradient>
<linearGradient id="paint1_linear_4618_7646" x1="188" y1="113" x2="251" y2="408" gradientUnits="userSpaceOnUse">
<stop stop-color="white"/>
<stop offset="1" stop-color="#DBD4E8"/>
</linearGradient>
</defs>
</svg>
