<svg width="24" height="24" viewBox="0 0 24 24" fill="none" xmlns="http://www.w3.org/2000/svg">
<path d="M11.7705 1C13.153 1 14.4794 1.5489 15.457 2.52637C16.0032 3.07247 16.415 3.72766 16.6729 4.44043C16.7009 4.43723 16.7299 4.43556 16.7588 4.43555H20.3213C20.7194 4.43565 21.1291 4.5577 21.4541 4.81055C21.7831 5.06692 22.0215 5.46086 22.0215 5.9248V21.4463C22.0213 21.9102 21.7832 22.3043 21.4541 22.5605C21.2443 22.7238 20.8331 22.9998 20.3213 23H3.22168C2.71008 23 2.29888 22.7239 2.08887 22.5605C1.7597 22.3043 1.52067 21.9103 1.52051 21.4463V5.9248C1.52051 5.46061 1.75959 5.06691 2.08887 4.81055C2.41397 4.55764 2.82339 4.43555 3.22168 4.43555H6.78418C6.81259 4.43558 6.84057 4.43732 6.86816 4.44043C7.12598 3.72754 7.53876 3.07255 8.08496 2.52637C9.06251 1.54909 10.3882 1.00008 11.7705 1ZM3.22168 5.93555C3.12635 5.93555 3.05714 5.965 3.02148 5.98828V21.3838C3.07796 21.4268 3.12971 21.4609 3.17383 21.4814C3.19833 21.4928 3.21435 21.4982 3.22168 21.5H20.3213C20.3288 21.4981 20.3447 21.4928 20.3691 21.4814C20.4134 21.4609 20.4649 21.427 20.5215 21.3838V5.98828C20.4859 5.96503 20.4165 5.93565 20.3213 5.93555H16.9766C16.9815 6.02769 16.9844 6.12015 16.9844 6.21289V7.10547C16.9844 7.51955 16.6484 7.85525 16.2344 7.85547H7.30762C6.8934 7.85547 6.55762 7.51968 6.55762 7.10547V6.21289C6.55762 6.12015 6.56052 6.02769 6.56543 5.93555H3.22168ZM15.4395 10.502C15.7146 10.1924 16.1885 10.1644 16.498 10.4395C16.8076 10.7146 16.8356 11.1885 16.5605 11.498L11.2275 17.498C11.0853 17.6581 10.8811 17.7499 10.667 17.75C10.4528 17.75 10.2488 17.6581 10.1064 17.498L7.43945 14.498C7.16438 14.1885 7.1924 13.7146 7.50195 13.4395C7.81154 13.1644 8.2854 13.1924 8.56055 13.502L10.666 15.8711L15.4395 10.502ZM11.7705 2.5C10.7858 2.50008 9.84179 2.89163 9.14551 3.58789C8.44919 4.28419 8.05765 5.2282 8.05762 6.21289V6.35547H15.4844V6.21289C15.4843 5.22829 15.0927 4.28417 14.3965 3.58789C13.7001 2.89156 12.7553 2.5 11.7705 2.5Z" fill="#373742"/>
</svg>
